<svg width="17" height="13" viewBox="0 0 17 13" fill="none" xmlns="http://www.w3.org/2000/svg">
<path d="M16.42 5.62409C16.3724 5.50134 16.301 5.3892 16.21 5.29409L11.21 0.294092C11.1168 0.200853 11.0061 0.126893 10.8843 0.0764322C10.7624 0.0259719 10.6319 0 10.5 0C10.2337 0 9.9783 0.105788 9.79 0.294092C9.69676 0.38733 9.6228 0.498021 9.57234 0.619843C9.52188 0.741665 9.49591 0.872233 9.49591 1.00409C9.49591 1.27039 9.6017 1.52579 9.79 1.71409L13.09 5.00409H1.5C1.23478 5.00409 0.98043 5.10945 0.792893 5.29699C0.605357 5.48452 0.5 5.73888 0.5 6.00409C0.5 6.26931 0.605357 6.52366 0.792893 6.7112C0.98043 6.89873 1.23478 7.00409 1.5 7.00409L13.09 7.00409L9.79 10.2941C9.69627 10.3871 9.62188 10.4977 9.57111 10.6195C9.52034 10.7414 9.4942 10.8721 9.4942 11.0041C9.4942 11.1361 9.52034 11.2668 9.57111 11.3887C9.62188 11.5105 9.69627 11.6211 9.79 11.7141C9.88296 11.8078 9.99356 11.8822 10.1154 11.933C10.2373 11.9838 10.368 12.0099 10.5 12.0099C10.632 12.0099 10.7627 11.9838 10.8846 11.933C11.0064 11.8822 11.117 11.8078 11.21 11.7141L16.21 6.71409C16.301 6.61899 16.3724 6.50684 16.42 6.38409C16.52 6.14063 16.52 5.86755 16.42 5.62409Z" fill="white"/>
</svg>
