<svg width="35" height="36" viewBox="0 0 35 36" fill="none" xmlns="http://www.w3.org/2000/svg">
<path d="M24.1646 33.0002C24.5519 33.0025 24.9358 32.9254 25.2939 32.7735C25.6519 32.6215 25.9769 32.3978 26.25 32.1152L30.2021 28.0502C30.4737 27.7692 30.6262 27.389 30.6262 26.9927C30.6262 26.5964 30.4737 26.2163 30.2021 25.9352L24.3688 19.9352C24.0955 19.6558 23.7259 19.499 23.3406 19.499C22.9554 19.499 22.5857 19.6558 22.3125 19.9352L19.9792 22.3202C18.3637 21.8772 16.8675 21.0616 15.6042 19.9352C14.5121 18.6337 13.7195 17.0955 13.2854 15.4352L15.6042 13.0352C15.8758 12.7542 16.0282 12.374 16.0282 11.9777C16.0282 11.5814 15.8758 11.2013 15.6042 10.9202L9.77084 4.92021C9.4976 4.64084 9.12799 4.48402 8.74272 4.48402C8.35745 4.48402 7.98783 4.64084 7.71459 4.92021L3.77709 9.00021C3.50239 9.28107 3.28482 9.6154 3.1371 9.98368C2.98937 10.352 2.91444 10.7468 2.91667 11.1452C3.04898 16.9086 5.28803 22.4091 9.18751 26.5502C13.2136 30.5611 18.5612 32.8641 24.1646 33.0002ZM8.75001 8.11521L12.5271 12.0002L10.6458 13.9352C10.4677 14.1069 10.3342 14.3218 10.2578 14.5603C10.1814 14.7988 10.1644 15.0532 10.2083 15.3002C10.7534 17.8058 11.9075 20.1282 13.5625 22.0502C15.4297 23.7547 17.6882 24.942 20.125 25.5002C20.3615 25.5511 20.6066 25.5407 20.8382 25.47C21.0699 25.3993 21.2808 25.2705 21.4521 25.0952L23.3333 23.1152L27.1104 27.0002L24.1938 30.0002C19.3575 29.8721 14.743 27.8869 11.2583 24.4352C7.89384 20.8495 5.95819 16.0969 5.83334 11.1152L8.75001 8.11521ZM29.1667 16.5002H32.0833C32.1212 14.7167 31.8075 12.9438 31.1613 11.2883C30.5151 9.63284 29.5497 8.12908 28.3233 6.86765C27.0969 5.60623 25.6349 4.61326 24.0255 3.94859C22.416 3.28392 20.6923 2.96132 18.9583 3.00021V6.00021C20.3115 5.95207 21.6599 6.19073 22.9196 6.70136C24.1793 7.212 25.3234 7.98369 26.2809 8.96847C27.2383 9.95325 27.9885 11.1301 28.485 12.4258C28.9814 13.7215 29.2135 15.1084 29.1667 16.5002Z" fill="#FF9D42"/>
<path d="M18.9583 12C22.0208 12 23.3333 13.35 23.3333 16.5H26.25C26.25 11.67 23.6542 9 18.9583 9V12Z" fill="#FF9D42"/>
</svg>
