<svg width="33" height="33" viewBox="0 0 33 33" fill="none" xmlns="http://www.w3.org/2000/svg">
<path d="M27.4123 22.4256C27.4123 22.2728 27.3985 22.1617 27.3709 22.0923C27.3433 22.0228 27.2191 21.9082 26.9984 21.7485C26.7777 21.5888 26.4983 21.4152 26.1603 21.2277C25.8223 21.0402 25.4947 20.8562 25.1774 20.6756C24.8601 20.495 24.5462 20.3214 24.2358 20.1548C23.9254 19.9881 23.7289 19.8839 23.6461 19.8423C23.5771 19.8006 23.4461 19.7103 23.2529 19.5714C23.0598 19.4325 22.8873 19.3284 22.7356 19.2589C22.5838 19.1895 22.439 19.1548 22.301 19.1548C22.0941 19.1548 21.8423 19.2971 21.5457 19.5818C21.2491 19.8666 20.9767 20.1791 20.7283 20.5193C20.48 20.8596 20.2145 21.1721 19.9317 21.4568C19.6488 21.7416 19.4178 21.8839 19.2384 21.8839C19.1419 21.8839 19.028 21.8596 18.897 21.811C18.7659 21.7624 18.659 21.7173 18.5762 21.6756C18.4935 21.6339 18.3762 21.568 18.2245 21.4777C18.0727 21.3874 17.9761 21.3284 17.9348 21.3006C16.569 20.5367 15.3964 19.6582 14.4169 18.6652C13.4374 17.6721 12.5614 16.4881 11.7889 15.1131C11.7613 15.0714 11.7026 14.9742 11.613 14.8214C11.5233 14.6687 11.4578 14.5506 11.4164 14.4673C11.375 14.3839 11.3302 14.2763 11.2819 14.1443C11.2336 14.0124 11.2095 13.8978 11.2095 13.8006C11.2095 13.62 11.3509 13.3874 11.6337 13.1027C11.9165 12.818 12.2269 12.5506 12.5649 12.3006C12.9029 12.0506 13.2133 11.7763 13.4961 11.4777C13.7789 11.1791 13.9203 10.9256 13.9203 10.7173C13.9203 10.5784 13.8858 10.4325 13.8168 10.2798C13.7478 10.127 13.6444 9.95338 13.5064 9.75893C13.3685 9.56449 13.2788 9.43254 13.2374 9.3631C13.196 9.27977 13.0925 9.08185 12.927 8.76935C12.7614 8.45685 12.589 8.14088 12.4097 7.82143C12.2303 7.50199 12.0475 7.17213 11.8613 6.83185C11.6751 6.49157 11.5026 6.21032 11.344 5.9881C11.1853 5.76588 11.0715 5.64088 11.0025 5.6131C10.9335 5.58532 10.8232 5.57143 10.6714 5.57143C10.0093 5.57143 9.31258 5.72421 8.58142 6.02977C7.94683 6.32143 7.39501 6.97768 6.92596 7.99852C6.45691 9.01935 6.22239 9.9256 6.22239 10.7173C6.22239 10.9395 6.23964 11.1756 6.27412 11.4256C6.30861 11.6756 6.3431 11.8874 6.37759 12.061C6.41208 12.2346 6.47416 12.4638 6.56383 12.7485C6.6535 13.0332 6.72248 13.2381 6.77076 13.3631C6.81905 13.4881 6.90527 13.7173 7.02943 14.0506C7.15359 14.3839 7.22946 14.5923 7.25705 14.6756C8.08478 16.9534 9.57814 19.1791 11.7371 21.3527C13.8961 23.5263 16.1069 25.0298 18.3693 25.8631C18.4521 25.8909 18.659 25.9673 18.9901 26.0923C19.3212 26.2173 19.5488 26.3041 19.673 26.3527C19.7971 26.4013 20.0006 26.4707 20.2834 26.561C20.5662 26.6513 20.7939 26.7138 20.9663 26.7485C21.1388 26.7832 21.3491 26.818 21.5975 26.8527C21.8458 26.8874 22.0803 26.9048 22.301 26.9048C23.0874 26.9048 23.9875 26.6687 25.0015 26.1964C26.0155 25.7242 26.6673 25.1687 26.957 24.5298C27.2605 23.7937 27.4123 23.0923 27.4123 22.4256ZM32.7097 6.2381V26.2381C32.7097 27.8909 32.1269 29.3041 30.9611 30.4777C29.7954 31.6513 28.3917 32.2381 26.7501 32.2381H6.88457C5.24291 32.2381 3.83922 31.6513 2.6735 30.4777C1.50779 29.3041 0.924927 27.8909 0.924927 26.2381V6.2381C0.924927 4.58532 1.50779 3.17213 2.6735 1.99851C3.83922 0.824904 5.24291 0.238098 6.88457 0.238098H26.7501C28.3917 0.238098 29.7954 0.824904 30.9611 1.99851C32.1269 3.17213 32.7097 4.58532 32.7097 6.2381Z" fill="white"/>
</svg>
