<svg width="23" height="21" viewBox="0 0 23 21" fill="none" xmlns="http://www.w3.org/2000/svg">
<path d="M21.0391 0.725002C21.6717 1.05095 22.1377 1.5947 22.3346 2.23668C22.5315 2.87867 22.4432 3.56631 22.0891 4.14841L13.0969 18.9216C12.8691 19.2959 12.5533 19.6185 12.1724 19.8659C11.7915 20.1132 11.3554 20.2791 10.8958 20.3512C10.4362 20.4234 9.96493 20.4 9.51645 20.2829C9.06797 20.1657 8.65367 19.9577 8.3039 19.6741L1.48906 14.1513C0.944951 13.7101 0.613593 13.0883 0.567881 12.4224C0.522169 11.7565 0.765847 11.1012 1.24531 10.6006C1.72477 10.1 2.40074 9.7952 3.12451 9.75314C3.84829 9.71109 4.56058 9.93527 5.10468 10.3764L9.74218 14.1354L17.3172 1.691C17.4926 1.40273 17.728 1.14908 18.01 0.944517C18.292 0.739958 18.615 0.588503 18.9606 0.4988C19.3063 0.409098 19.6677 0.382905 20.0243 0.421717C20.3809 0.460528 20.7257 0.563585 21.0391 0.725002V0.725002Z" fill="#70C63B"/>
</svg>
