<svg width="30" height="33" viewBox="0 0 30 33" fill="none" xmlns="http://www.w3.org/2000/svg">
<path d="M26.2433 29.9062H3.74665C2.85938 29.9062 2.19978 30.5991 2.19978 31.3951C2.19978 32.1911 2.85938 33 3.74665 33H26.1864C27.0737 33 27.7333 32.3071 27.7333 31.5111C27.7333 30.7151 27.1339 29.9062 26.2433 29.9062ZM30 13.9219C30 13.16 29.7467 12.4066 29.258 11.784C28.5683 10.8565 27.45 10.3093 26.2627 10.3093L16.6004 10.3125V6.70312H18.683C19.567 6.70312 20.2942 6.00703 20.2942 5.15625C20.2942 4.30547 19.6272 3.60938 18.7433 3.60938H16.6607V1.48887C16.6004 0.696094 15.8839 0 14.9397 0C13.9955 0 13.3862 0.696094 13.3862 1.48887V3.60938H11.2433C10.3594 3.60938 9.63817 4.30547 9.63817 5.15625C9.63817 6.00703 10.3594 6.70312 11.2433 6.70312H13.3259V10.3125H3.74665C1.65536 10.3125 0 11.9432 0 13.9154C0 14.2828 0.0595982 14.6566 0.181071 15.0176L4.5837 27.8438H7.9654L3.23638 14.0766C3.22031 14.025 3.21295 13.9799 3.21295 13.9283C3.21295 13.6834 3.41049 13.4062 3.74665 13.4062H26.24C26.6468 13.4062 26.7834 13.7604 26.7834 13.9292C26.7835 13.9702 26.7781 14.0111 26.7673 14.0508L22.0179 27.8438H25.4076L29.767 15.0047C29.9464 14.6502 30 14.2893 30 13.9219Z" fill="#FF9D42"/>
</svg>
