<svg width="26" height="35" viewBox="0 0 26 35" fill="none" xmlns="http://www.w3.org/2000/svg">
<path d="M24.7087 0.185938C24.8366 0.285769 24.9415 0.420808 25.0141 0.579132C25.0867 0.737456 25.1248 0.914196 25.125 1.09375V17.5C25.1249 17.7184 25.0688 17.9318 24.9639 18.1127C24.859 18.2936 24.71 18.4337 24.5362 18.515L24.1875 17.5L24.5362 18.515L24.5306 18.5172L24.5193 18.5238L24.4762 18.5434C24.2297 18.6577 23.9816 18.7671 23.7318 18.8716C23.2368 19.0794 22.5487 19.3594 21.7687 19.6372C20.2387 20.1884 18.2456 20.7812 16.6875 20.7812C15.0993 20.7812 13.785 20.1688 12.6412 19.6328L12.5887 19.6109C11.4 19.0531 10.3875 18.5938 9.18747 18.5938C7.87497 18.5938 6.11622 19.0969 4.61809 19.6372C3.94732 19.8811 3.28267 20.1473 2.62497 20.4356V33.9062C2.62497 34.1963 2.5262 34.4745 2.35038 34.6796C2.17457 34.8848 1.93611 35 1.68747 35C1.43883 35 1.20037 34.8848 1.02456 34.6796C0.848742 34.4745 0.749969 34.1963 0.749969 33.9062V1.09375C0.749969 0.803669 0.848742 0.52547 1.02456 0.320352C1.20037 0.115234 1.43883 0 1.68747 0C1.93611 0 2.17457 0.115234 2.35038 0.320352C2.5262 0.52547 2.62497 0.803669 2.62497 1.09375V1.71063C3.04872 1.53781 3.55497 1.33875 4.10622 1.14188C5.63622 0.595 7.63122 0 9.18747 0C10.7625 0 12.045 0.605937 13.1643 1.13531L13.245 1.17469C14.4112 1.72375 15.4275 2.1875 16.6875 2.1875C18 2.1875 19.7587 1.68438 21.2568 1.14406C22.1106 0.833027 22.9542 0.485712 23.7862 0.102812L23.8218 0.0875L23.8293 0.083125H23.8312" fill="#FF9D42"/>
</svg>
