<svg width="44" height="24" viewBox="0 0 44 24" fill="none" xmlns="http://www.w3.org/2000/svg">
<path d="M35.695 4.49414L32.4225 1.70508C31.6982 1.09326 30.7198 0.749993 29.7 0.75H14.1075C13.09 0.75 12.1069 1.0957 11.385 1.70508L8.1125 4.49414H0V19.4766H4.4C5.61 19.4766 6.58625 18.6445 6.59313 17.6191H7.21875L13.035 22.0957C15.1594 23.5664 18.1088 23.6016 20.295 22.3184C21.1544 22.9512 22.0825 23.25 23.1206 23.25C24.3719 23.25 25.5475 22.8164 26.4756 21.8438C27.995 22.3535 29.7894 21.9961 30.8756 20.8594L32.6769 18.9668C33.0619 18.5625 33.3025 18.0996 33.4263 17.6191H37.4069C37.4137 18.6445 38.3969 19.4766 39.6 19.4766H44V4.49414H35.695ZM3.3 17.6016C2.695 17.6016 2.2 17.1797 2.2 16.6641C2.2 16.1484 2.695 15.7266 3.3 15.7266C3.905 15.7266 4.4 16.1484 4.4 16.6641C4.4 17.1855 3.905 17.6016 3.3 17.6016ZM30.1125 17.1973L28.3181 19.084C28.1256 19.2832 27.7819 19.3184 27.5413 19.1543L25.8981 18.0176L23.8356 20.1562C23.4231 20.584 22.8044 20.4375 22.5981 20.2969L20.0681 18.4512L18.9956 19.5762C18.04 20.5781 16.3006 20.7305 15.1938 19.9629L8.50437 14.8066H6.6V7.30078H9.48063L13.7225 3.69141C13.86 3.64453 13.9769 3.60352 14.1144 3.55664H18.0125L15.3519 5.63672C13.3306 7.21289 13.2137 9.87305 15.0494 11.5723C16.0669 12.5215 19.2569 13.9863 22.0275 11.8301L22.5913 11.3906L30.03 16.5352C30.2638 16.6992 30.2981 16.998 30.1125 17.1973ZM37.4 14.8066H32.6425C32.4844 14.6426 32.3056 14.4902 32.1131 14.3555L25.0525 9.46875L25.9119 8.80078C26.3587 8.44922 26.3931 7.85742 25.9806 7.47656L25.2313 6.79102C24.8188 6.41016 24.1244 6.38672 23.6775 6.73242L19.8825 9.69727C19.2294 10.207 18.1156 10.248 17.5037 9.69727C16.8644 9.11719 16.9194 8.22656 17.5863 7.71094L22.0963 4.18945C22.605 3.79102 23.265 3.57422 23.9525 3.57422L29.7069 3.5625C29.8513 3.5625 29.9888 3.60938 30.085 3.69727L34.3269 7.30664H37.4V14.8066ZM40.7 17.6016C40.095 17.6016 39.6 17.1797 39.6 16.6641C39.6 16.1484 40.095 15.7266 40.7 15.7266C41.305 15.7266 41.8 16.1484 41.8 16.6641C41.8 17.1855 41.305 17.6016 40.7 17.6016Z" fill="#FF9D42"/>
</svg>
