<svg width="29" height="30" viewBox="0 0 29 30" fill="none" xmlns="http://www.w3.org/2000/svg">
<path d="M14.3435 0.125C13.9805 0.125 13.6219 0.216053 13.2812 0.391657L0.708346 6.98003C0.282526 7.20767 0.000140613 7.79301 0.000140613 8.4499C0.000140613 9.10679 0.282526 9.69213 0.708346 9.91977L3.30361 11.2791C2.56851 12.9571 2.15165 14.9407 2.15165 17.0284V18.856C2.15165 20.7031 1.66756 22.6087 1.1521 24.1111C0.860745 24.9566 0.529054 25.7891 0.143575 26.5566C0.000140615 26.8362 -0.0402002 27.2004 0.0404814 27.5321C0.121163 27.8638 0.30942 28.111 0.542501 28.1955L3.41118 29.2361C3.59944 29.3077 3.80114 29.2556 3.96699 29.1061C4.13283 28.9565 4.24937 28.7093 4.28523 28.4297C4.67071 25.646 4.47797 23.1486 4.1911 21.36C4.04767 20.4365 3.85493 19.4934 3.58599 18.6284V17.0284C3.58599 15.0643 4.04319 13.2107 4.83656 11.7278C5.41478 10.7197 6.16332 9.90676 7.04186 9.40596L14.0791 5.3931C14.4466 5.18498 14.8635 5.44513 15.0069 5.97845C15.1504 6.51176 14.9711 7.11661 14.6035 7.32474L7.56629 11.3376C7.01048 11.6563 6.52191 12.1441 6.12298 12.7424L13.2768 16.4886C13.6174 16.6642 13.976 16.7553 14.3391 16.7553C14.7021 16.7553 15.0607 16.6642 15.4014 16.4886L27.9787 9.91977C28.4046 9.69864 28.6869 9.10679 28.6869 8.4499C28.6869 7.79301 28.4046 7.20767 27.9787 6.98003L15.4059 0.391657C15.0652 0.216053 14.7066 0.125 14.3435 0.125ZM5.7375 24.5794C5.7375 26.8752 9.59229 29.2621 14.3435 29.2621C19.0948 29.2621 22.9496 26.8752 22.9496 24.5794L22.2638 15.1228L15.8899 18.4658C15.3924 18.7259 14.868 18.856 14.3435 18.856C13.8191 18.856 13.2902 18.7259 12.7971 18.4658L6.4233 15.1228L5.7375 24.5794Z" fill="#FF9D42"/>
</svg>
