<svg width="35" height="32" viewBox="0 0 35 32" fill="none" xmlns="http://www.w3.org/2000/svg">
<path d="M17.5 10.7924C14.3939 10.7924 11.8591 13.1323 11.8591 15.9995C11.8591 18.8666 14.3939 21.2065 17.5 21.2065C20.6062 21.2065 23.141 18.8666 23.141 15.9995C23.141 13.1323 20.6062 10.7924 17.5 10.7924ZM34.4187 15.9995C34.4187 13.8432 34.4398 11.7065 34.3086 9.55414C34.1774 7.05414 33.5596 4.83539 31.5791 3.00726C29.5944 1.17523 27.195 0.608828 24.4867 0.487734C22.1508 0.36664 19.836 0.386172 17.5043 0.386172C15.1683 0.386172 12.8536 0.36664 10.5218 0.487734C7.81351 0.608828 5.40987 1.17914 3.4294 3.00726C1.4447 4.8393 0.831093 7.05414 0.699908 9.55414C0.568723 11.7104 0.589882 13.8471 0.589882 15.9995C0.589882 18.1518 0.568723 20.2924 0.699908 22.4448C0.831093 24.9448 1.44893 27.1635 3.4294 28.9916C5.4141 30.8237 7.81351 31.3901 10.5218 31.5112C12.8578 31.6323 15.1726 31.6127 17.5043 31.6127C19.8402 31.6127 22.155 31.6323 24.4867 31.5112C27.195 31.3901 29.5987 30.8198 31.5791 28.9916C33.5638 27.1596 34.1774 24.9448 34.3086 22.4448C34.444 20.2924 34.4187 18.1557 34.4187 15.9995ZM17.5 24.0112C12.697 24.0112 8.82068 20.433 8.82068 15.9995C8.82068 11.5659 12.697 7.98773 17.5 7.98773C22.3031 7.98773 26.1794 11.5659 26.1794 15.9995C26.1794 20.433 22.3031 24.0112 17.5 24.0112ZM26.5349 9.5307C25.4135 9.5307 24.5078 8.69476 24.5078 7.65961C24.5078 6.62445 25.4135 5.78851 26.5349 5.78851C27.6563 5.78851 28.5619 6.62445 28.5619 7.65961C28.5622 7.90541 28.51 8.14886 28.4083 8.37601C28.3065 8.60316 28.1572 8.80955 27.9689 8.98336C27.7806 9.15717 27.5571 9.29498 27.311 9.3889C27.0649 9.48282 26.8012 9.53101 26.5349 9.5307Z" fill="#FF9D42"/>
</svg>
