<svg width="46" height="45" viewBox="0 0 46 45" fill="none" xmlns="http://www.w3.org/2000/svg">
<path d="M45.5 22.5C45.5 34.64 35.4368 44.5 23 44.5C10.5632 44.5 0.5 34.64 0.5 22.5C0.5 10.36 10.5632 0.5 23 0.5C35.4368 0.5 45.5 10.36 45.5 22.5Z" fill="white" stroke="#FF9D42"/>
<path d="M23 18.8345C20.7063 18.8345 18.8344 20.7063 18.8344 23.0001C18.8344 25.2938 20.7063 27.1657 23 27.1657C25.2938 27.1657 27.1657 25.2938 27.1657 23.0001C27.1657 20.7063 25.2938 18.8345 23 18.8345ZM35.4938 23.0001C35.4938 21.2751 35.5094 19.5657 35.4125 17.8438C35.3157 15.8438 34.8594 14.0688 33.3969 12.6063C31.9313 11.1407 30.1594 10.6876 28.1594 10.5907C26.4344 10.4938 24.725 10.5095 23.0031 10.5095C21.2781 10.5095 19.5688 10.4938 17.8469 10.5907C15.8469 10.6876 14.0719 11.1438 12.6094 12.6063C11.1438 14.072 10.6907 15.8438 10.5938 17.8438C10.4969 19.5688 10.5125 21.2782 10.5125 23.0001C10.5125 24.722 10.4969 26.4345 10.5938 28.1563C10.6907 30.1563 11.1469 31.9313 12.6094 33.3938C14.075 34.8595 15.8469 35.3126 17.8469 35.4095C19.5719 35.5063 21.2813 35.4907 23.0031 35.4907C24.7282 35.4907 26.4375 35.5063 28.1594 35.4095C30.1594 35.3126 31.9344 34.8563 33.3969 33.3938C34.8625 31.9282 35.3157 30.1563 35.4125 28.1563C35.5125 26.4345 35.4938 24.7251 35.4938 23.0001ZM23 29.4095C19.4532 29.4095 16.5907 26.547 16.5907 23.0001C16.5907 19.4532 19.4532 16.5907 23 16.5907C26.5469 16.5907 29.4094 19.4532 29.4094 23.0001C29.4094 26.547 26.5469 29.4095 23 29.4095ZM29.6719 17.8251C28.8438 17.8251 28.175 17.1563 28.175 16.3282C28.175 15.5001 28.8438 14.8313 29.6719 14.8313C30.5 14.8313 31.1688 15.5001 31.1688 16.3282C31.169 16.5249 31.1305 16.7196 31.0553 16.9013C30.9802 17.0831 30.8699 17.2482 30.7309 17.3872C30.5919 17.5263 30.4267 17.6365 30.245 17.7117C30.0633 17.7868 29.8685 17.8253 29.6719 17.8251Z" fill="#FF9D42"/>
</svg>
