<svg width="35" height="36" viewBox="0 0 35 36" fill="none" xmlns="http://www.w3.org/2000/svg">
<path d="M17.0313 2C13.8415 2.00387 10.7835 3.3089 8.52804 5.62883C6.27256 7.94875 5.00378 11.0941 5.00001 14.375C4.99619 17.0561 5.84765 19.6645 7.42376 21.8C7.42376 21.8 7.75189 22.2444 7.80548 22.3085L17.0313 33.5L26.2614 22.3029C26.3095 22.2433 26.6388 21.8 26.6388 21.8L26.6399 21.7966C28.2152 19.6621 29.0663 17.0549 29.0625 14.375C29.0588 11.0941 27.79 7.94875 25.5345 5.62883C23.279 3.3089 20.221 2.00387 17.0313 2ZM17.0313 18.875C16.166 18.875 15.3201 18.6111 14.6006 18.1166C13.8812 17.6221 13.3204 16.9193 12.9893 16.0971C12.6582 15.2748 12.5715 14.37 12.7403 13.4971C12.9091 12.6242 13.3258 11.8224 13.9377 11.193C14.5495 10.5637 15.3291 10.1351 16.1777 9.96147C17.0264 9.78783 17.9061 9.87695 18.7055 10.2175C19.5049 10.5581 20.1882 11.1349 20.6689 11.8749C21.1497 12.615 21.4063 13.485 21.4063 14.375C21.4048 15.568 20.9434 16.7117 20.1233 17.5553C19.3031 18.3989 18.1911 18.8735 17.0313 18.875Z" fill="#FF9D42"/>
</svg>
