<svg width="39" height="25" viewBox="0 0 39 25" fill="none" xmlns="http://www.w3.org/2000/svg">
<path d="M22.3538 4.74874C22.3538 4.3953 22.4908 4.05633 22.7348 3.80641C22.9788 3.55649 23.3097 3.41609 23.6547 3.41609H39.2665C39.6116 3.41609 39.9425 3.55649 40.1865 3.80641C40.4305 4.05633 40.5675 4.3953 40.5675 4.74874C40.5675 5.10218 40.4305 5.44115 40.1865 5.69107C39.9425 5.94099 39.6116 6.0814 39.2665 6.0814H23.6547C23.3097 6.0814 22.9788 5.94099 22.7348 5.69107C22.4908 5.44115 22.3538 5.10218 22.3538 4.74874ZM39.2665 11.412H23.6547C23.3097 11.412 22.9788 11.5524 22.7348 11.8024C22.4908 12.0523 22.3538 12.3912 22.3538 12.7447C22.3538 13.0981 22.4908 13.4371 22.7348 13.687C22.9788 13.9369 23.3097 14.0773 23.6547 14.0773H39.2665C39.6116 14.0773 39.9425 13.9369 40.1865 13.687C40.4305 13.4371 40.5675 13.0981 40.5675 12.7447C40.5675 12.3912 40.4305 12.0523 40.1865 11.8024C39.9425 11.5524 39.6116 11.412 39.2665 11.412ZM39.2665 19.408H27.5577C27.2127 19.408 26.8817 19.5484 26.6378 19.7983C26.3938 20.0482 26.2567 20.3872 26.2567 20.7406C26.2567 21.0941 26.3938 21.433 26.6378 21.683C26.8817 21.9329 27.2127 22.0733 27.5577 22.0733H39.2665C39.6116 22.0733 39.9425 21.9329 40.1865 21.683C40.4305 21.433 40.5675 21.0941 40.5675 20.7406C40.5675 20.3872 40.4305 20.0482 40.1865 19.7983C39.9425 19.5484 39.6116 19.408 39.2665 19.408ZM23.2807 23.0728C23.3247 23.2412 23.3355 23.417 23.3126 23.5898C23.2897 23.7626 23.2334 23.929 23.1472 24.0793C23.061 24.2296 22.9464 24.3609 22.8102 24.4655C22.674 24.5701 22.5188 24.646 22.3538 24.6886L22.0285 24.7386C21.7393 24.7377 21.4584 24.6394 21.2291 24.4588C20.9999 24.2781 20.835 24.0252 20.7601 23.7391C20.2529 21.7399 19.1123 19.9696 17.5171 18.7059C15.9219 17.4422 13.9624 16.7566 11.9459 16.7566C9.92936 16.7566 7.96985 17.4422 6.37468 18.7059C4.77951 19.9696 3.6389 21.7399 3.13174 23.7391C3.08828 23.9088 3.01252 24.0681 2.90882 24.2078C2.80511 24.3474 2.67551 24.4647 2.52743 24.5529C2.37936 24.6412 2.21573 24.6986 2.04594 24.7219C1.87616 24.7451 1.70355 24.7338 1.53804 24.6886C1.37297 24.646 1.21783 24.5701 1.08162 24.4655C0.945407 24.3609 0.83085 24.2296 0.744603 24.0793C0.658356 23.929 0.602138 23.7626 0.579218 23.5898C0.556297 23.417 0.567131 23.2412 0.611089 23.0728C1.05187 21.3183 1.87492 19.689 3.01843 18.307C4.16194 16.925 5.59622 15.8264 7.21358 15.0935C5.91482 14.0793 4.95929 12.6734 4.48152 11.0738C4.00375 9.47409 4.02781 7.76121 4.5503 6.17629C5.0728 4.59136 6.06742 3.21421 7.39413 2.23874C8.72083 1.26326 10.3128 0.738586 11.9459 0.738586C13.579 0.738586 15.171 1.26326 16.4977 2.23874C17.8244 3.21421 18.819 4.59136 19.3415 6.17629C19.864 7.76121 19.8881 9.47409 19.4103 11.0738C18.9325 12.6734 17.977 14.0793 16.6782 15.0935C18.2956 15.8264 19.7299 16.925 20.8734 18.307C22.0169 19.689 22.8399 21.3183 23.2807 23.0728ZM11.9459 14.0773C12.9751 14.0773 13.9813 13.7647 14.837 13.179C15.6928 12.5932 16.3598 11.7607 16.7537 10.7867C17.1476 9.81261 17.2506 8.7408 17.0498 7.70676C16.849 6.67272 16.3534 5.72289 15.6256 4.97739C14.8979 4.23189 13.9706 3.7242 12.9611 3.51851C11.9517 3.31283 10.9053 3.41839 9.95444 3.82186C9.00355 4.22532 8.1908 4.90856 7.61899 5.78518C7.04717 6.66179 6.74197 7.69241 6.74197 8.74671C6.74626 10.1591 7.29591 11.5124 8.2709 12.5112C9.2459 13.5099 10.5671 14.0729 11.9459 14.0773Z" fill="#FF9D42"/>
</svg>
