<svg width="26" height="28" viewBox="0 0 26 28" fill="none" xmlns="http://www.w3.org/2000/svg">
<path d="M24.5049 22.3539C23.8785 20.8703 22.9696 19.5227 21.8287 18.3861C20.6913 17.2463 19.3439 16.3375 17.8609 15.71C17.8476 15.7033 17.8344 15.7 17.8211 15.6934C19.8896 14.1992 21.2344 11.7654 21.2344 9.01953C21.2344 4.4707 17.5488 0.785156 13 0.785156C8.45116 0.785156 4.76562 4.4707 4.76562 9.01953C4.76562 11.7654 6.11034 14.1992 8.1789 15.6967C8.16562 15.7033 8.15233 15.7066 8.13905 15.7133C6.65155 16.3408 5.31679 17.2406 4.17128 18.3895C3.03145 19.5269 2.12266 20.8743 1.49511 22.3572C0.8786 23.809 0.546103 25.3656 0.515616 26.9426C0.51473 26.978 0.520946 27.0133 0.533898 27.0463C0.546849 27.0793 0.566274 27.1093 0.591029 27.1347C0.615783 27.1601 0.645366 27.1802 0.678033 27.194C0.710701 27.2078 0.745793 27.2149 0.781241 27.2148H2.77343C2.91952 27.2148 3.03573 27.0986 3.03905 26.9559C3.10546 24.3926 4.13476 21.992 5.95429 20.1725C7.8369 18.2898 10.3371 17.2539 13 17.2539C15.6629 17.2539 18.1631 18.2898 20.0457 20.1725C21.8652 21.992 22.8945 24.3926 22.9609 26.9559C22.9642 27.102 23.0805 27.2148 23.2266 27.2148H25.2187C25.2542 27.2149 25.2893 27.2078 25.3219 27.194C25.3546 27.1802 25.3842 27.1601 25.409 27.1347C25.4337 27.1093 25.4531 27.0793 25.4661 27.0463C25.479 27.0133 25.4853 26.978 25.4844 26.9426C25.4512 25.3555 25.1224 23.8115 24.5049 22.3539ZM13 14.7305C11.476 14.7305 10.0416 14.1361 8.96249 13.057C7.88339 11.9779 7.28905 10.5436 7.28905 9.01953C7.28905 7.49551 7.88339 6.06113 8.96249 4.98203C10.0416 3.90293 11.476 3.30859 13 3.30859C14.524 3.30859 15.9584 3.90293 17.0375 4.98203C18.1166 6.06113 18.7109 7.49551 18.7109 9.01953C18.7109 10.5436 18.1166 11.9779 17.0375 13.057C15.9584 14.1361 14.524 14.7305 13 14.7305Z" fill="#FF9D42"/>
</svg>
