<svg width="35" height="24" viewBox="0 0 35 24" fill="none" xmlns="http://www.w3.org/2000/svg">
<path d="M34.2717 3.66309C34.0736 2.95614 33.6875 2.31609 33.1547 1.81101C32.6067 1.29039 31.9352 0.917976 31.2034 0.728924C28.4647 0.00704845 17.4922 0.00704861 17.4922 0.00704861C12.9178 -0.0449955 8.34465 0.183907 3.7984 0.692465C3.06659 0.895484 2.3963 1.27622 1.84715 1.8008C1.30757 2.31997 0.916733 2.96017 0.712567 3.66163C0.222119 6.30376 -0.0161741 8.98651 0.000900059 11.6737C-0.0165999 14.3585 0.221108 17.0404 0.712567 19.6858C0.912358 20.3843 1.30173 21.0216 1.84278 21.5364C2.38382 22.0512 3.05757 22.4231 3.7984 22.62C6.57361 23.3404 17.4922 23.3404 17.4922 23.3404C22.0723 23.3925 26.6513 23.1636 31.2034 22.655C31.9352 22.4659 32.6067 22.0935 33.1547 21.5729C33.6873 21.0679 34.0729 20.4278 34.2703 19.7208C34.7735 17.0797 35.0182 14.3958 35.0009 11.7073C35.0388 9.00731 34.7944 6.31079 34.2717 3.66163V3.66309ZM14.0038 16.6671V6.68184L23.133 11.6752L14.0038 16.6671Z" fill="#FF9D42"/>
</svg>
