<svg width="45" height="45" viewBox="0 0 45 45" fill="none" xmlns="http://www.w3.org/2000/svg">
<circle cx="22.5" cy="22.5" r="22" fill="white" stroke="#FF9D42"/>
<g clip-path="url(#clip0_30_95)">
<path d="M37.3342 15.8349C37.153 15.1885 36.8 14.6033 36.3128 14.1415C35.8119 13.6655 35.1979 13.3251 34.5288 13.1522C32.0248 12.4922 21.9928 12.4922 21.9928 12.4922C17.8106 12.4446 13.6294 12.6539 9.47282 13.1189C8.80374 13.3045 8.19091 13.6526 7.68882 14.1322C7.19549 14.6069 6.83816 15.1922 6.65149 15.8335C6.20308 18.2492 5.98521 20.702 6.00082 23.1589C5.98482 25.6135 6.20216 28.0655 6.65149 30.4842C6.83416 31.1229 7.19016 31.7055 7.68482 32.1762C8.17949 32.6469 8.79549 32.9869 9.47282 33.1669C12.0102 33.8255 21.9928 33.8255 21.9928 33.8255C26.1804 33.8732 30.3669 33.6639 34.5288 33.1989C35.1979 33.026 35.8119 32.6855 36.3128 32.2095C36.7998 31.7478 37.1524 31.1626 37.3328 30.5162C37.7929 28.1015 38.0167 25.6477 38.0008 23.1895C38.0354 20.721 37.812 18.2556 37.3342 15.8335V15.8349ZM18.8035 27.7242V18.5949L27.1502 23.1602L18.8035 27.7242Z" fill="#FF9D42"/>
</g>
<defs>
<clipPath id="clip0_30_95">
<rect width="32" height="32" fill="white" transform="translate(6 7)"/>
</clipPath>
</defs>
</svg>
